Patient4_TMGait_0pt5_01_left_27_EMG.mot
version=1
nRows=33
nColumns=33
inDegrees=no
endheader
time	1LAddLong	2LGlutMax	3LGlutMed	4LIliopsoas	5LSemiMemb	6LBicFemLong	7LRecFem	8LVastMed	9LVastLat	10LGasMed	11LTibAnt	12lTibPost	13LPeroneusLong	14LSol	15LExtDigLong	16LFlexDigLong	17RAddLong	18RGlutMax	19RGlutMed	20RIliopsoas	21RSemiMemb	22RBicFemLong	23RRecFem	24RVastMed	25RVastLat	26RGasMed	27RTibAnt	28RTibPost	29RPeroneusLong	30RSol	31RExtDigLong	32RFlexDigLong
36.99	0.018005	0.028992	0.12589	0.011749	-0.084381	-0.26581	-0.14221	-0.003662	-0.039673	-0.017548	-0.010529	0.016632	0.036011	-0.25848	0.037231	-0.3244	-0.005493	-0.089569	-0.076599	-0.079346	-0.093689	0.03479	0.07431	0.021515	-0.30914	-0.014191	-0.84473	0	0.1889	0.032196	-0.001221	-0.014954
36.991	0.018158	0.028534	0.075684	0.000458	0.007172	-0.27252	-0.16922	0.002747	-0.056458	-0.032196	-0.016632	-0.015869	0.071869	-0.34607	0.039825	-0.045929	0.047913	-0.002136	-0.1799	0.092773	-0.022278	-0.019379	0.17563	0.044403	-0.36545	-0.021362	-0.67093	0.000305	0.13519	0.00473	-0.005035	-0.018311
36.992	0.012817	0.035858	0.093231	0.007782	0.040894	-0.18616	-0.19302	-0.011444	-0.079498	0.012512	0.000763	0.023346	0.009918	-0.084076	0.000153	0.059814	0.041351	0.027618	0.043488	0.34439	0.1236	-0.045624	0.15732	0.044403	-0.31555	-0.018005	-0.26337	-0.005493	0.24323	-0.047302	0.000763	-0.016327
36.993	0.011749	0.022888	0.083923	-0.000916	0.003357	-0.086823	-0.1358	0.003204	-0.082092	0.014496	-0.004425	0.018005	-0.038757	0.38834	-0.027771	-0.034485	0.001526	0.012817	-0.073242	0.40405	0.23453	-0.037384	0.11292	0.005341	0.11795	-0.011139	0.04715	-0.002441	0.14191	-0.13672	-0.00061	-0.01236
36.994	0.006409	0.017242	0.088501	0.001831	-0.001526	-0.090027	-0.091248	0.01297	-0.077362	0.011444	-0.004883	0.009308	0.048981	0.49988	0.011292	0.088654	-0.036469	0.06546	-0.026245	0.19562	0.17395	-0.042114	0.010529	0.010223	0.42404	-0.00351	0.046539	-0.002747	-0.36941	-0.13733	-0.000305	-0.016632
36.995	0.001221	0.009918	0.11871	0.012665	-0.034637	-0.036163	-0.070801	0.021362	-0.087738	0.041656	-0.002747	0.035858	0.045319	0.45319	0.010986	0.098877	-0.088501	0.13596	0.036011	0.070953	0.35599	-0.11993	-0.14404	0.14023	0.40085	-0.002899	0.10529	-0.001831	0.65369	-0.057373	-0.003815	-0.01297
36.996	0.007782	-0.003967	0.11841	0.013275	0.003662	0.027924	-0.080719	-0.000916	-0.093231	0.022583	-0.010529	0.052948	0.049744	0.10498	-0.011444	-0.018768	-0.064697	0.12787	0.027008	-0.011292	0.2771	-0.1326	-0.039215	-0.020599	0.24902	-0.007019	0.26352	-0.00412	0.48904	0.029144	-0.003357	-0.001831
36.997	0.015411	0.007172	0.094299	0.01236	0.0737	0.020447	-0.10651	-0.002441	-0.10071	-0.005188	0.001526	0.005798	0.068665	-0.11322	-0.021362	-0.044403	-0.027618	0.001373	0.03418	0.017395	0.14755	-0.03418	-0.009613	-0.019836	0.030518	0.003815	-0.060425	-0.003967	-0.48325	0.088196	-0.002899	-0.003357
36.998	0.016632	0.011139	0.10468	0.0177	0.046997	-0.026245	-0.083466	-0.000458	-0.029297	-0.020294	-0.005188	0.008392	0.050201	0.067749	-0.007782	-0.00885	-0.018463	-0.06012	-0.09613	0.093842	0.14297	0.081177	-0.023651	0.054932	-0.13733	0.00473	-0.19058	-0.001526	-0.41718	0.089264	-0.00061	-0.002747
36.999	0.011597	0.050201	0.11047	0.006104	-0.025024	-0.026855	-0.10178	0.005951	0.030823	-0.02533	-0.000305	-0.044556	0.027924	-0.24994	0.006714	0.012665	-0.03479	-0.10712	-0.075531	0.17639	0.18021	0.15243	-0.062866	0.071106	-0.12192	0.002289	-0.21027	-0.000916	0.051727	0.10529	-0.001984	0.001373
37	0.015106	0.04364	0.12421	0.008698	-0.097961	-0.011444	-0.14114	-0.007477	-0.001678	-0.025482	-0.010376	-0.045319	0.010986	-0.32349	0.001831	0.032654	-0.041504	-0.22858	-0.15381	0.071716	0.077362	0.18707	-0.13458	0.025482	-0.064392	-0.005798	0.019379	-0.002441	-0.065613	0.059967	-0.001221	-0.004272
37.001	0.017853	0.003204	0.13412	0.005951	-0.10819	-0.028381	-0.1564	-0.011444	-0.029602	0.015717	0.005798	0.005341	0.005798	-0.38269	-0.011597	0.003204	-0.059357	-0.27329	-0.1683	-0.045166	-0.001984	0.13199	0.036316	0.21408	-0.21759	-0.016785	0.13168	-0.000458	-0.19516	0.10483	0.000916	-0.005951
37.002	0.014191	0.009155	0.13184	0.008698	0.022125	0.026855	-0.11917	-0.002899	-0.023804	0.041046	0.003052	0.007935	0.017395	-0.31616	-0.003052	-0.006561	-0.021362	-0.22095	-0.21835	-0.11627	0.039978	0.070038	0.071869	0.30365	-0.077515	-0.011597	0.10956	-0.001831	-0.15854	0.089111	-0.000458	-0.011902
37.003	0.009766	0.017853	0.13443	0.002899	0.15472	0.02594	-0.073547	-0.002136	-0.022736	0.063782	-0.000153	0.009766	-0.007477	0.028687	0.010071	0.011139	0.049591	-0.2066	-0.14236	-0.095215	-0.001678	0.021973	0.25055	0.19577	-0.036621	-0.014343	0.018463	0.00061	-0.21225	0.033417	-0.001526	-0.009766
37.004	0.008545	0.048218	0.13596	0.013733	0.09964	0.082855	-0.092468	0.000458	-0.019073	0.073547	-0.005493	0.011444	0	0.24429	0.010376	-0.007324	0.081024	-0.26474	-0.096893	-0.008545	0.019684	-0.18234	0.39703	0.1355	0.026245	-0.010681	-0.18112	-0.002136	-0.046539	0.026245	0.000153	-0.003815
37.005	0.011139	0.032349	0.13123	0.002747	0.034943	0.077209	-0.10361	0.001678	-0.00946	0.079956	-0.011749	0.013428	0.015717	0.15274	0.012512	0.000153	0.098267	-0.30655	-0.088959	-0.071564	0.032501	-0.27878	0.47287	0.11307	0.45502	-0.00946	-0.35446	-0.001831	-0.050964	-0.020599	0.004883	-0.011749
37.006	0.016632	0.081329	0.12192	0.018158	0.00824	-0.17532	-0.098267	-0.000305	0.005035	-0.031433	0.003815	0.00824	0.01297	0.046997	0.007324	0.013275	0.12268	-0.32303	-0.19486	-0.1033	0.070038	-0.31723	0.51117	-0.068054	0.32776	-0.013733	-0.31845	-0.000153	0.010834	-0.039215	-0.003967	-0.010986
37.007	0.021973	0.10513	0.14191	0.003815	0.019226	-0.31067	-0.084381	0.004578	-0.004425	-0.16617	0.02121	0.005798	0.005035	0.053253	0.010986	0.016785	0.10346	-0.42084	-0.55054	-0.070038	0.088806	-0.15427	0.51544	0.33768	0.25299	-0.019379	-0.13077	-0.001068	-0.086212	-0.020599	0.000458	-0.014648
37.008	0.018768	0.077057	0.14633	0.010223	0.021362	-0.19257	-0.090485	0.002747	-0.043335	-0.11261	0.027771	0.006561	0.002136	0.04776	0.009766	0.007629	0.092163	-0.39764	-0.43732	-0.015259	-0.11108	-0.095825	0.45685	0.29419	0.034332	-0.019836	0.097351	-0.002594	-0.12161	-0.058289	-0.001373	-0.005341
37.009	0.018768	0.043793	0.16556	0.015259	0.008698	0.00412	-0.07843	0.002594	-0.055695	-0.04715	0.00946	0.003967	0.024567	0.11307	-0.01236	0.005798	0.067749	-0.47195	-0.30807	0.063477	-0.12528	-0.09491	0.33432	0.2887	-0.1619	-0.010681	0.43259	-0.006714	0.06424	-0.24918	-0.001526	-0.009613
37.01	0.009308	0.061035	0.17075	0.016937	-0.028381	0.1651	-0.081329	0.007477	-0.062714	-0.024261	0.01236	0.00412	0.008087	0.10986	-0.003662	0.012512	0.064697	-0.51376	-0.048676	0.057068	-0.073547	-0.030975	-0.003357	0.1294	-0.25909	-0.000916	0.62439	-0.000153	0.12955	-0.29053	0.001068	-0.007629
37.011	-0.010376	0.07843	0.17044	0.014343	-0.046692	0.077972	-0.089874	0.008545	-0.057983	-0.012512	0.003815	0.008545	0.014038	-0.02533	0.002899	0.016174	0.077667	-0.50736	0.022125	0.025024	0.007477	0.006256	-0.14572	-0.035553	-0.31937	-0.00351	0.63797	0.000763	-0.24384	-0.20767	-0.001373	-0.005035
37.012	0.049591	0.094757	0.17838	-0.003052	-0.061646	0.11261	-0.15991	0.006409	-0.019684	-0.016785	-0.004578	0.007477	0.016174	-0.084381	0.041809	0.007019	0.04364	-0.32074	0.3215	-0.13489	0.014191	0.00473	-0.50156	-0.080872	-0.27313	0.001831	0.4747	-0.000153	-0.69702	-0.089722	0.00061	-0.011902
37.013	0.048676	0.10849	0.19959	0.002289	-0.053406	0.096436	-0.13351	0.005188	0.046692	-0.018921	-0.00351	0.003815	0.002594	-0.025787	0.039825	0.019531	0.002136	-0.038605	0.12207	-0.16998	-0.006714	-0.022583	-0.57022	0.083313	-0.26779	0.004272	0.6778	0.003967	0.22659	-0.030365	-0.000153	0.001221
37.014	0.069733	0.11749	0.20523	-0.005798	-0.012817	0.19959	-0.10132	0.01236	0.039673	-0.031738	-0.02533	0.003357	0.036316	0.010681	0.011139	0.000305	-0.044403	0.20569	0.062714	-0.11459	-0.16205	-0.045929	-0.18082	-0.075836	-0.3537	-0.006561	0.37308	-0.00473	0.39795	0.021973	0.009613	-0.000305
37.015	0.028076	0.088806	0.21637	0.008392	-0.085754	0.21362	-0.11627	0.000916	0.04715	-0.045624	-0.026855	0.007935	-0.001984	0.074005	-0.016022	0.011597	-0.035095	0.26215	0.3186	-0.2269	-0.14923	-0.056915	0.19577	-0.13275	-0.57098	-0.014496	-0.51209	-0.003357	0.090332	-0.001678	0.001678	-0.00061
37.016	0.017853	0.12817	0.22507	0.002289	-0.048065	0.1091	-0.10239	-0.002899	0.037842	-0.10284	-0.00351	0.00351	-0.021667	0.073395	-0.032043	0.011139	0.018158	0.35721	-0.12131	-0.15442	-0.005188	-0.034332	0.24887	-0.20874	-0.078125	-0.013428	-0.71457	-0.003967	0.027466	0.022888	0.000305	-0.006714
37.017	0.039825	0.16205	0.22553	0.008087	0.00351	-0.041656	-0.05249	0.001984	0.024109	-0.13626	-0.005341	-0.001373	-0.062866	0.033722	-0.010681	0.006561	0.053558	0.23117	-0.1088	-0.061035	-0.004425	0.031891	0.13733	-0.23865	0.44937	-0.011139	-0.69397	-0.000458	-0.047607	0.089722	0.000916	-0.004578
37.018	0.032501	0.13077	0.23758	0.013733	0.090179	-0.13062	-0.045166	-0.007629	0.013733	-0.14313	0	0.004883	-0.064697	-0.030975	0.004272	0.016022	0.090942	0.088654	-0.014496	0.12528	0.13306	0.001831	0.081177	-0.14496	0.32745	-0.015411	-0.61584	-0.002289	-0.14511	0.17181	0.000305	-0.004883
37.019	0.021667	0.12528	0.25406	0.019531	0.067596	-0.18082	-0.074615	-0.000763	0.021515	-0.05188	-0.004272	0.002441	-0.060883	-0.015106	0.010529	0.012512	0.067291	0.15427	0.026093	0.36789	0.62637	-0.03479	0.043182	-0.046539	-0.000763	-0.014191	-0.76675	-0.000763	-0.098114	0.19257	-0.000153	-0.002899
37.02	0.018616	0.10056	0.2507	-0.00061	-0.006561	-0.23315	-0.063782	0.000763	0.023499	0.034485	-0.007477	0.004883	-0.05127	0.024719	0.028534	0.011902	-0.006714	0.19959	-0.20035	0.52567	0.41199	-0.042114	0.10223	-0.029297	-0.35492	-0.007629	-0.57159	0.001984	0.18097	0.14343	-0.00061	-0.004272
37.021	0.014648	0.10696	0.24765	0.003815	-0.069427	-0.030823	-0.088043	0.005646	0.022583	0.2243	-0.005035	0.000305	-0.036316	-0.020599	0.02121	0.012665	-0.083923	0.32211	-0.032501	0.42511	-0.42831	0.20325	0.14236	0.12146	-0.47897	-0.006409	-0.2887	-0.001526	0.38132	0.040588	-0.000458	-0.005798
37.022	0.009155	0.083313	0.2832	-0.002747	-0.11749	0.079651	-0.068817	0.007477	0.023346	0.3894	-0.00946	-0.003357	0.02243	0.015564	0.02533	-0.057068	-0.092926	0.36102	-0.043182	0.095367	-0.35797	0.1564	0.159	0.090485	-0.40665	-0.004883	0.1181	-0.001526	0.28625	0.058136	-0.003357	-0.003662
